<?xml version="1.0" encoding="UTF-8" standalone="no"?>
<!DOCTYPE svg PUBLIC "-//W3C//DTD SVG 1.1//EN" "http://www.w3.org/Graphics/SVG/1.1/DTD/svg11.dtd">
<svg width="100%" height="100%" viewBox="0 0 1080 140" version="1.1" xmlns="http://www.w3.org/2000/svg" xmlns:xlink="http://www.w3.org/1999/xlink" xml:space="preserve" xmlns:serif="http://www.serif.com/" style="fill-rule:evenodd;clip-rule:evenodd;stroke-linejoin:round;stroke-miterlimit:2;">
    <g transform="matrix(0.803426,0,0,0.803426,-119.105,-141.353)">
        <g transform="matrix(244.63,0,0,244.63,133.079,349.626)">
            <path d="M0.062,-0L0.062,-0.71L0.32,-0.71L0.47,-0.259L0.62,-0.71L0.878,-0.71L0.878,-0L0.682,-0L0.682,-0.4L0.539,-0.003L0.4,-0.003L0.258,-0.4L0.258,-0L0.062,-0Z" style="fill-rule:nonzero;"/>
        </g>
        <g transform="matrix(244.63,0,0,244.63,348.353,349.626)">
            <rect x="0.062" y="-0.71" width="0.196" height="0.71" style="fill-rule:nonzero;"/>
        </g>
        <g transform="matrix(244.63,0,0,244.63,414.404,349.626)">
            <path d="M0.062,-0L0.062,-0.71L0.258,-0.71L0.258,-0.041L0.146,-0.157L0.567,-0.157L0.567,-0L0.062,-0Z" style="fill-rule:nonzero;"/>
        </g>
        <g transform="matrix(244.63,0,0,244.63,542.834,349.626)">
            <path d="M0.062,-0L0.062,-0.71L0.258,-0.71L0.258,-0.429L0.475,-0.71L0.697,-0.71L0.448,-0.393L0.711,-0L0.494,-0L0.32,-0.266L0.258,-0.19L0.258,-0L0.062,-0Z" style="fill-rule:nonzero;"/>
        </g>
        <g transform="matrix(244.63,0,0,244.63,706.981,349.626)">
        </g>
        <g transform="matrix(244.63,0,0,244.63,734.869,349.626)">
            <path d="M0.062,-0L0.062,-0.71L0.258,-0.71L0.258,-0.429L0.475,-0.71L0.697,-0.71L0.448,-0.393L0.711,-0L0.494,-0L0.32,-0.266L0.258,-0.19L0.258,-0L0.062,-0Z" style="fill-rule:nonzero;"/>
        </g>
        <g transform="matrix(244.63,0,0,244.63,896.57,349.626)">
            <path d="M0.062,-0L0.062,-0.71L0.401,-0.71C0.454,-0.71 0.501,-0.701 0.541,-0.684C0.58,-0.667 0.611,-0.642 0.633,-0.611C0.654,-0.58 0.665,-0.543 0.665,-0.5C0.665,-0.467 0.659,-0.437 0.646,-0.412C0.633,-0.386 0.615,-0.365 0.591,-0.348C0.567,-0.331 0.538,-0.32 0.504,-0.314L0.502,-0.324C0.552,-0.324 0.589,-0.314 0.614,-0.293C0.639,-0.272 0.652,-0.241 0.655,-0.2L0.671,-0L0.471,-0L0.461,-0.166C0.46,-0.192 0.453,-0.211 0.44,-0.224C0.427,-0.236 0.405,-0.242 0.373,-0.242L0.258,-0.242L0.258,-0L0.062,-0ZM0.258,-0.399L0.365,-0.399C0.398,-0.399 0.423,-0.406 0.44,-0.42C0.456,-0.433 0.465,-0.452 0.465,-0.477C0.465,-0.502 0.456,-0.521 0.44,-0.534C0.423,-0.547 0.398,-0.553 0.365,-0.553L0.258,-0.553L0.258,-0.399Z" style="fill-rule:nonzero;"/>
        </g>
        <g transform="matrix(244.63,0,0,244.63,1056.56,349.626)">
            <path d="M0.018,-0L0.274,-0.71L0.497,-0.71L0.753,-0L0.553,-0L0.513,-0.117L0.257,-0.117L0.217,-0L0.018,-0ZM0.309,-0.269L0.462,-0.269L0.386,-0.494L0.309,-0.269Z" style="fill-rule:nonzero;"/>
        </g>
        <g transform="matrix(244.63,0,0,244.63,1207.01,349.626)">
            <path d="M0.217,-0L0.217,-0.553L0.01,-0.553L0.01,-0.71L0.621,-0.71L0.621,-0.553L0.414,-0.553L0.414,-0L0.217,-0Z" style="fill-rule:nonzero;"/>
        </g>
        <g transform="matrix(244.63,0,0,244.63,1346.69,349.626)">
            <path d="M0.062,-0L0.062,-0.71L0.588,-0.71L0.588,-0.553L0.258,-0.553L0.258,-0.434L0.576,-0.434L0.576,-0.278L0.258,-0.278L0.258,-0.157L0.596,-0.157L0.596,-0L0.062,-0Z" style="fill-rule:nonzero;"/>
        </g>
        <g transform="matrix(244.63,0,0,244.63,1501.78,349.626)">
        </g>
    </g>
    <g transform="matrix(0.525263,0,0,0.525263,282.715,8.03635)">
        <text x="239.835px" y="183.589px" style="font-family:'Menlo-Regular', 'Menlo', monospace;font-size:244.63px;">✦</text>
    </g>
</svg>
