<?xml version="1.0" encoding="UTF-8" standalone="no"?>
<!DOCTYPE svg PUBLIC "-//W3C//DTD SVG 1.1//EN" "http://www.w3.org/Graphics/SVG/1.1/DTD/svg11.dtd">
<svg width="100%" height="100%" viewBox="0 0 383 368" version="1.1" xmlns="http://www.w3.org/2000/svg" xmlns:xlink="http://www.w3.org/1999/xlink" xml:space="preserve" xmlns:serif="http://www.serif.com/" style="fill-rule:evenodd;clip-rule:evenodd;stroke-linejoin:round;stroke-miterlimit:1.5;">
    <g transform="matrix(1,0,0,1,-651.867,-481.84)">
        <g transform="matrix(1,0,0,1,-16.2906,21.8554)">
            <g transform="matrix(1,0,0,1,-6.5598,20.9964)">
                <g transform="matrix(0.284402,0,0,0.284402,632.556,706.867)">
                    <g transform="matrix(244.63,0,0,244.63,133.079,349.626)">
                        <path d="M0.062,-0L0.062,-0.71L0.32,-0.71L0.47,-0.259L0.62,-0.71L0.878,-0.71L0.878,-0L0.682,-0L0.682,-0.4L0.539,-0.003L0.4,-0.003L0.258,-0.4L0.258,-0L0.062,-0Z" style="fill-rule:nonzero;"/>
                    </g>
                    <g transform="matrix(244.63,0,0,244.63,348.353,349.626)">
                        <rect x="0.062" y="-0.71" width="0.196" height="0.71" style="fill-rule:nonzero;"/>
                    </g>
                    <g transform="matrix(244.63,0,0,244.63,414.404,349.626)">
                        <path d="M0.062,-0L0.062,-0.71L0.258,-0.71L0.258,-0.041L0.146,-0.157L0.567,-0.157L0.567,-0L0.062,-0Z" style="fill-rule:nonzero;"/>
                    </g>
                    <g transform="matrix(244.63,0,0,244.63,542.834,349.626)">
                        <path d="M0.062,-0L0.062,-0.71L0.258,-0.71L0.258,-0.429L0.475,-0.71L0.697,-0.71L0.448,-0.393L0.711,-0L0.494,-0L0.32,-0.266L0.258,-0.19L0.258,-0L0.062,-0Z" style="fill-rule:nonzero;"/>
                    </g>
                    <g transform="matrix(244.63,0,0,244.63,706.981,349.626)">
                    </g>
                    <g transform="matrix(244.63,0,0,244.63,734.869,349.626)">
                        <path d="M0.062,-0L0.062,-0.71L0.258,-0.71L0.258,-0.429L0.475,-0.71L0.697,-0.71L0.448,-0.393L0.711,-0L0.494,-0L0.32,-0.266L0.258,-0.19L0.258,-0L0.062,-0Z" style="fill-rule:nonzero;"/>
                    </g>
                    <g transform="matrix(244.63,0,0,244.63,896.57,349.626)">
                        <path d="M0.062,-0L0.062,-0.71L0.401,-0.71C0.454,-0.71 0.501,-0.701 0.541,-0.684C0.58,-0.667 0.611,-0.642 0.633,-0.611C0.654,-0.58 0.665,-0.543 0.665,-0.5C0.665,-0.467 0.659,-0.437 0.646,-0.412C0.633,-0.386 0.615,-0.365 0.591,-0.348C0.567,-0.331 0.538,-0.32 0.504,-0.314L0.502,-0.324C0.552,-0.324 0.589,-0.314 0.614,-0.293C0.639,-0.272 0.652,-0.241 0.655,-0.2L0.671,-0L0.471,-0L0.461,-0.166C0.46,-0.192 0.453,-0.211 0.44,-0.224C0.427,-0.236 0.405,-0.242 0.373,-0.242L0.258,-0.242L0.258,-0L0.062,-0ZM0.258,-0.399L0.365,-0.399C0.398,-0.399 0.423,-0.406 0.44,-0.42C0.456,-0.433 0.465,-0.452 0.465,-0.477C0.465,-0.502 0.456,-0.521 0.44,-0.534C0.423,-0.547 0.398,-0.553 0.365,-0.553L0.258,-0.553L0.258,-0.399Z" style="fill-rule:nonzero;"/>
                    </g>
                    <g transform="matrix(244.63,0,0,244.63,1056.56,349.626)">
                        <path d="M0.018,-0L0.274,-0.71L0.497,-0.71L0.753,-0L0.553,-0L0.513,-0.117L0.257,-0.117L0.217,-0L0.018,-0ZM0.309,-0.269L0.462,-0.269L0.386,-0.494L0.309,-0.269Z" style="fill-rule:nonzero;"/>
                    </g>
                    <g transform="matrix(244.63,0,0,244.63,1207.01,349.626)">
                        <path d="M0.217,-0L0.217,-0.553L0.01,-0.553L0.01,-0.71L0.621,-0.71L0.621,-0.553L0.414,-0.553L0.414,-0L0.217,-0Z" style="fill-rule:nonzero;"/>
                    </g>
                    <g transform="matrix(244.63,0,0,244.63,1346.69,349.626)">
                        <path d="M0.062,-0L0.062,-0.71L0.588,-0.71L0.588,-0.553L0.258,-0.553L0.258,-0.434L0.576,-0.434L0.576,-0.278L0.258,-0.278L0.258,-0.157L0.596,-0.157L0.596,-0L0.062,-0Z" style="fill-rule:nonzero;"/>
                    </g>
                    <g transform="matrix(244.63,0,0,244.63,1501.78,349.626)">
                    </g>
                </g>
                <g transform="matrix(0.364302,0,0,0.349651,659.151,383.414)">
                    <g transform="matrix(1,0,0,1,10.4415,1.81743)">
                        <path d="M109.041,315.946L594.56,157.126L1004.96,252.851L1002.31,713.713L610.268,934.849L125.997,745.396L109.041,315.946ZM168.075,736.004L559.207,878.781L555.625,617.455L166.657,502.169L168.075,736.004ZM256.351,408.927L256.351,458.742L428.89,510.018L428.89,458.742L256.351,408.927Z"/>
                        <path d="M109.041,315.946L594.56,157.126L1004.96,252.851L1002.31,713.713L610.268,934.849L125.997,745.396L109.041,315.946ZM168.075,736.004L559.207,878.781L555.625,617.455L166.657,502.169L168.075,736.004ZM163.516,746.814L156.161,736.083L154.743,502.247L169.917,490.229L558.885,605.516L567.538,617.278L571.119,878.604L555.267,890.496L189.438,756.955L609.371,921.239L990.437,706.294L992.983,262.78L595.078,169.967L121.32,324.94L137.577,736.667L163.516,746.814ZM259.532,396.964L432.071,446.78L440.804,458.742L440.804,510.018L425.622,521.956L253.083,470.679L244.437,458.742L244.437,408.927L259.532,396.964ZM256.351,408.927L256.351,458.742L428.89,510.018L428.89,458.742L256.351,408.927Z"/>
                    </g>
                    <g>
                        <g transform="matrix(1.047,0.147901,0.0538637,1.21114,-49.4056,-181.407)">
                            <path d="M174.905,635.653L237.046,759.597" style="fill:none;stroke:black;stroke-width:17.79px;"/>
                        </g>
                        <g transform="matrix(1.00796,0.0164126,0.0164126,1.03386,-9.67554,-19.9598)">
                            <path d="M205.976,489.673L357.904,803.087" style="fill:none;stroke:black;stroke-width:21.21px;"/>
                        </g>
                        <g transform="matrix(1.00951,0.0117507,0.0296264,1.04479,-12.5224,-32.8493)">
                            <path d="M332.129,526.329L481.276,853.224" style="fill:none;stroke:black;stroke-width:20.99px;"/>
                        </g>
                        <g transform="matrix(1.02795,0.142362,-0.0223855,1.1125,8.59785,-133.447)">
                            <path d="M459.144,564.599L587.31,790.096" style="fill:none;stroke:black;stroke-width:19.35px;"/>
                        </g>
                        <path d="M162.781,608.839L269.273,489.673" style="fill:none;stroke:black;stroke-width:22px;"/>
                        <g transform="matrix(1.00496,-0.00604638,-0.00604638,1.00737,1.37801,-1.6788)">
                            <path d="M205.976,752.277L380.219,540" style="fill:none;stroke:black;stroke-width:22px;"/>
                        </g>
                        <path d="M327.74,803.087L523.227,582.113" style="fill:none;stroke:black;stroke-width:22px;"/>
                        <g transform="matrix(1.01276,-0.0132053,-0.0132053,1.01366,1.39293,-1.44123)">
                            <path d="M445.514,843.483L599.133,684.538" style="fill:none;stroke:black;stroke-width:22px;"/>
                        </g>
                    </g>
                </g>
            </g>
        </g>
    </g>
</svg>
